<svg width="125" height="21" viewBox="0 0 125 21" fill="none" xmlns="http://www.w3.org/2000/svg">
<path d="M3.81223 14.9749C5.17693 14.7834 6.42329 14.1345 7.32388 13.1466C8.22448 12.1588 8.71927 10.8978 8.71797 9.59373C8.71667 8.2897 9.3531 6.37658 10.4885 5.14049C11.6239 3.90439 13.191 3.09455 14.9047 2.85826L17.3623 2.52642C17.2959 2.45467 17.239 2.38292 17.1631 2.31117C14.0697 -0.612614 8.12966 0.266315 3.87865 4.26634C0.282369 7.71031 -0.932206 12.2843 0.737834 15.3875L3.81223 14.9749Z" fill="#301607"/>
<path d="M10.0916 9.42515C10.0853 11.0618 9.45875 12.6421 8.32543 13.8795C7.1921 15.1169 5.62711 15.9294 3.9143 16.1696L1.58005 16.4835L1.72238 16.6359C4.81575 19.5597 10.7558 18.6898 15.0068 14.6898C18.5841 11.3175 19.8366 6.73456 18.1761 3.67624L15.0068 4.10674C13.6508 4.29292 12.41 4.93138 11.5085 5.90676C10.6071 6.88214 10.1045 8.1301 10.0916 9.42515Z" fill="#301607"/>
<path d="M39.1659 4.33669C39.1659 5.11159 38.551 5.63464 37.7927 5.63464C36.8908 5.63464 36.5629 5.01472 34.7388 5.01472C32.3612 5.01472 30.3936 6.85509 30.3936 9.27663C30.3936 11.7757 32.2997 13.5385 34.7388 13.5385C36.7269 13.5385 37.1163 12.8799 37.9976 12.8799C38.756 12.8799 39.3708 13.4223 39.3708 14.1778C39.3708 14.8171 38.797 15.282 38.1411 15.5339C37.2188 15.8632 36.0915 16.0763 34.7593 16.0763C30.4961 16.0763 27.2987 13.4417 27.2987 9.27663C27.2987 5.42154 30.783 2.51569 34.8003 2.51569C36.112 2.51569 37.0753 2.69005 37.9771 3C38.6945 3.25184 39.1659 3.69741 39.1659 4.33669Z" fill="#301607"/>
<path d="M43.9475 11.4657C43.9475 12.8993 44.8698 13.926 46.3456 13.926C47.8213 13.926 48.7436 12.8993 48.7436 11.4657C48.7436 10.0322 47.8213 9.00542 46.3456 9.00542C44.8698 9.00542 43.9475 10.0322 43.9475 11.4657ZM41.2831 11.4657C41.2831 8.57923 43.5171 6.83572 46.3456 6.83572C49.174 6.83572 51.4285 8.57923 51.4285 11.4657C51.4285 14.3522 49.174 16.0763 46.3456 16.0763C43.5171 16.0763 41.2831 14.3522 41.2831 11.4657Z" fill="#301607"/>
<path d="M57.2968 7.01007H60.6991V6.35141C60.6991 4.35607 61.4574 2.53507 63.8144 2.53507C64.6548 2.53507 65.413 2.67067 65.9869 2.90314C66.6838 3.17435 67.1347 3.54243 67.1347 4.14297C67.1347 4.66602 66.6838 5.11159 66.1099 5.11159C65.823 5.11159 65.5975 4.95661 65.3106 4.84037C64.9827 4.70477 64.6958 4.66602 64.4088 4.66602C63.63 4.66602 63.4045 5.09221 63.4045 6.11895V7.01007H65.1671C65.741 7.01007 66.1919 7.49438 66.1919 8.01743C66.1919 8.57923 65.741 9.02479 65.1671 9.02479H63.4045V14.8365C63.4045 15.5145 62.7897 16.0763 62.0518 16.0763C61.314 16.0763 60.6991 15.5145 60.6991 14.8365V9.02479H57.2968V14.8365C57.2968 15.5145 56.6819 16.0763 55.9441 16.0763C55.2062 16.0763 54.5913 15.5145 54.5913 14.8365V9.02479H53.915C53.3411 9.02479 52.8697 8.57923 52.8697 8.01743C52.8697 7.49438 53.3411 7.01007 53.915 7.01007H54.5913V6.11895C54.5913 4.43356 55.3702 2.72879 57.6452 2.72879C58.3831 2.72879 58.9569 2.82565 59.4898 3.03875C60.1252 3.29059 60.5556 3.67803 60.5556 4.2592C60.5556 4.80163 60.1662 5.22782 59.6743 5.22782C59.4488 5.22782 59.2849 5.1697 59.0594 5.09221C58.834 5.01472 58.6085 4.95661 58.3421 4.95661C57.5222 4.95661 57.2968 5.61527 57.2968 6.31267V7.01007Z" fill="#301607"/>
<path d="M75.1433 13.4417C75.7172 13.4417 76.1476 13.9066 76.1476 14.4684C76.1476 14.9915 75.7582 15.3595 74.9793 15.6501C74.139 15.9795 73.2167 16.0763 72.3149 16.0763C70.7367 16.0763 69.4659 15.6114 68.6051 14.7784C67.7238 13.926 67.2319 12.7443 67.2319 11.3495C67.2319 10.0128 67.7443 8.86981 68.5641 8.07555C69.384 7.30066 70.5522 6.83572 72.0279 6.83572C73.5446 6.83572 74.6309 7.30066 75.3688 7.99806C76.2706 8.86982 76.537 9.91592 76.537 10.7877C76.537 11.6982 76.0452 12.2212 75.2048 12.2212H70.0808C70.3268 13.4029 71.1671 14.0422 72.4993 14.0422C73.9341 14.0422 74.467 13.4417 75.1433 13.4417ZM70.0603 10.5358H73.9136C73.8316 9.60596 73.1552 8.85044 72.0484 8.85044C70.9212 8.85044 70.2448 9.5091 70.0603 10.5358Z" fill="#301607"/>
<path d="M86.5266 13.4417C87.1005 13.4417 87.5309 13.9066 87.5309 14.4684C87.5309 14.9915 87.1415 15.3595 86.3626 15.6501C85.5223 15.9795 84.6 16.0763 83.6981 16.0763C82.12 16.0763 80.8492 15.6114 79.9884 14.7784C79.107 13.926 78.6152 12.7443 78.6152 11.3495C78.6152 10.0128 79.1275 8.86981 79.9474 8.07555C80.7672 7.30066 81.9355 6.83572 83.4112 6.83572C84.9279 6.83572 86.0142 7.30066 86.752 7.99806C87.6539 8.86982 87.9203 9.91592 87.9203 10.7877C87.9203 11.6982 87.4284 12.2212 86.5881 12.2212H81.4641C81.71 13.4029 82.5504 14.0422 83.8826 14.0422C85.3173 14.0422 85.8502 13.4417 86.5266 13.4417ZM81.4436 10.5358H85.2968C85.2148 9.60596 84.5385 8.85044 83.4317 8.85044C82.3044 8.85044 81.6281 9.5091 81.4436 10.5358Z" fill="#301607"/>
<path d="M101.046 12.2987C101.046 14.759 98.7092 15.8826 96.3931 15.8826H92.089C91.2487 15.8826 90.6133 15.2821 90.6133 14.5265V4.04611C90.6133 3.29059 91.2487 2.69005 92.089 2.69005H95.6553C97.7254 2.69005 99.8979 3.75552 99.8979 6.04146C99.8979 7.37815 99.2831 8.38551 98.1558 8.86981V8.90856C100.164 9.35412 101.046 10.5746 101.046 12.2987ZM96.9465 6.40953C96.9465 5.44092 96.1267 4.93724 95.1224 4.93724H93.5647V8.05618H95.1019C95.8602 8.05618 96.9465 7.76559 96.9465 6.40953ZM98.0328 11.95C98.0328 10.9814 97.336 10.284 95.6348 10.284H93.5647V13.616H95.7373C96.9465 13.616 98.0328 13.2867 98.0328 11.95Z" fill="#301607"/>
<path d="M103.693 12.0469V8.07555C103.693 7.39752 104.287 6.83572 105.045 6.83572C105.804 6.83572 106.398 7.39752 106.398 8.07555V11.8919C106.398 12.3956 106.48 12.7636 106.664 13.093C106.951 13.5773 107.484 13.9066 108.345 13.9066C109.206 13.9066 109.739 13.5773 110.005 13.093C110.19 12.7636 110.272 12.3956 110.272 11.8919V8.07555C110.272 7.39752 110.866 6.83572 111.625 6.83572C112.383 6.83572 112.977 7.39752 112.977 8.07555V12.0469C112.977 13.2092 112.711 14.0422 112.157 14.6815C111.338 15.6501 110.005 16.0763 108.345 16.0763C106.664 16.0763 105.312 15.6308 104.512 14.6815C103.98 14.0228 103.693 13.2092 103.693 12.0469Z" fill="#301607"/>
<path d="M123.418 6.81635C124.237 6.81635 124.893 7.43626 124.893 8.21116C124.893 8.55986 124.729 8.88919 124.627 9.1604L121.757 16.3669C120.589 19.2921 118.458 20.4157 116.572 20.4157C115.834 20.4157 115.26 19.8733 115.26 19.1952C115.26 18.5172 115.834 17.9748 116.572 17.9748C117.597 17.9748 118.314 17.5099 118.826 16.5025L115.281 9.17977C115.158 8.92793 114.953 8.54048 114.953 8.2499C114.953 7.45563 115.629 6.81635 116.449 6.81635C117.289 6.81635 117.72 7.37815 117.884 7.74622L120.159 13.1705L121.942 7.99806C122.188 7.24254 122.721 6.81635 123.418 6.81635Z" fill="#301607"/>
</svg>
